<?xml version="1.0" encoding="utf-8" ?>
<svg baseProfile="full" height="28" version="1.1" width="28" xmlns="http://www.w3.org/2000/svg" xmlns:ev="http://www.w3.org/2001/xml-events" xmlns:xlink="http://www.w3.org/1999/xlink"><defs /><rect fill="white" height="28" width="28" x="0" y="0" /><path d="M7.226256983240223,7.121508379888268 m-0.9776536312849161,-0.8379888268156424 l-1.1173184357541899,-0.27932960893854747 -0.6983240223463687,0.06983240223463687 l-1.4664804469273742,0.8379888268156424 -0.8379888268156424,0.9078212290502793 l-0.6284916201117318,1.4664804469273742 m6.4245810055865915,-2.513966480446927 l7.960893854748603,1.3966480446927374 1.9553072625698322,0.5586592178770949 l0.06983240223463687,-0.34916201117318435 0.6983240223463687,-0.48882681564245806 l1.8854748603351954,-0.6983240223463687 1.8156424581005586,-0.4189944134078212 l1.4664804469273742,0.2094972067039106 1.6061452513966479,1.1173184357541899 l0.6284916201117318,0.8379888268156424 0.2094972067039106,0.34916201117318435 l0.06983240223463687,1.3268156424581006 m0.2094972067039106,-0.34916201117318435 l-0.27932960893854747,0.5586592178770949 -0.5586592178770949,3.2122905027932958 l-0.6284916201117318,1.536312849162011 -2.094972067039106,2.8631284916201114 l-1.1871508379888267,1.1173184357541899 -2.304469273743017,1.3268156424581006 l-2.2346368715083798,0.7681564245810055 -2.513966480446927,0.34916201117318435 l-3.142458100558659,-0.06983240223463687 -4.9581005586592175,-1.9553072625698322 l-1.6061452513966479,-1.1871508379888267 -1.8854748603351954,-2.304469273743017 l-0.5586592178770949,-1.3966480446927374 -0.27932960893854747,-1.8156424581005586 l0.34916201117318435,-5.237430167597765 m10.26536312849162,7.262569832402234 l-1.3966480446927374,1.9553072625698322 -0.8379888268156424,0.6983240223463687 m3.282122905027933,-2.025139664804469 l0.0,0.6284916201117318 0.7681564245810055,2.513966480446927 m-6.284916201117318,-9.287709497206704 l0.0,0.0 m10.405027932960893,2.025139664804469 l0.0,0.0 m-0.2094972067039106,0.8379888268156424 l0.0,0.0 m-10.405027932960893,-1.8854748603351954 l0.0,0.0 m-0.6284916201117318,1.3268156424581006 l0.2094972067039106,-0.6284916201117318 0.6983240223463687,-0.4189944134078212 l1.047486033519553,0.2094972067039106 0.48882681564245806,0.6983240223463687 l-0.27932960893854747,0.34916201117318435 -1.047486033519553,0.2094972067039106 l-0.9776536312849161,-0.7681564245810055 -0.06983240223463687,-0.34916201117318435 l0.34916201117318435,-0.2094972067039106 m11.243016759776536,2.653631284916201 l0.6284916201117318,-0.5586592178770949 1.4664804469273742,0.27932960893854747 l-0.27932960893854747,0.34916201117318435 -1.047486033519553,0.2094972067039106 l-0.6983240223463687,-0.48882681564245806 0.06983240223463687,-0.27932960893854747 " fill="none" stroke="black" stroke-width="1" /></svg>